<?xml version="1.0" encoding="UTF-8"?>
<svg width="72px" height="58px" viewBox="0 0 72 58" version="1.1" xmlns="http://www.w3.org/2000/svg" xmlns:xlink="http://www.w3.org/1999/xlink">
    <!-- Generator: Sketch 42 (36781) - http://www.bohemiancoding.com/sketch -->
    <title>Group</title>
    <defs></defs>
    <g id="Page-1" stroke="none" stroke-width="1" fill="none" fill-rule="evenodd">
        <g id="Desktop" transform="translate(-673.000000, -1208.000000)">
            <g id="Services" transform="translate(95.000000, 1054.000000)">
                <g id="Dry-Clean" transform="translate(579.000000, 155.000000)">
                    <g id="Group">
                        <polyline id="Stroke-2666" stroke="#000000" stroke-width="2" stroke-linecap="round" stroke-linejoin="round" points="22.339578 3.57894737 16.202046 3.57894737 16.202046 23.4210526 19.3350384 35.7262105 13.0690537 55.4736842 30.3976343 55.4736842 35 41.7368421 39.896867 55.4736842 56.9309463 55.4736842 50.6649616 35.8238947 53.797954 23.4210526 53.797954 3.57894737 47.4035166 3.57894737"></polyline>
                        <path d="M35,26.4736842 C28.9313939,17.8530526 22.4680307,3.57894737 22.4680307,3.57894737 L25.7984015,0.526315789 L44.0731458,0.526315789 L47.4818414,3.57894737 C47.4818414,3.57894737 40.7396419,16.69 35,26.4736842 L35,26.4736842 Z" id="Stroke-2667" stroke="#000000" stroke-width="2" stroke-linecap="round" stroke-linejoin="round"></path>
                        <path d="M44.398977,38.6842105 C43.5374041,38.6842105 42.8324808,39.368 42.8324808,40.2105263 C42.8324808,41.0530526 43.5374041,41.7368421 44.398977,41.7368421 C45.2605499,41.7368421 45.9654731,41.0530526 45.9654731,40.2105263 C45.9654731,39.368 45.2605499,38.6842105 44.398977,38.6842105" id="Fill-2668" fill="#000000"></path>
                        <path d="M44.398977,44.7894737 C43.5374041,44.7894737 42.8324808,45.4732632 42.8324808,46.3157895 C42.8324808,47.1583158 43.5374041,47.8421053 44.398977,47.8421053 C45.2605499,47.8421053 45.9654731,47.1583158 45.9654731,46.3157895 C45.9654731,45.4732632 45.2605499,44.7894737 44.398977,44.7894737" id="Fill-2669" fill="#000000"></path>
                        <path d="M25.601023,38.6842105 C24.7394501,38.6842105 24.0345269,39.368 24.0345269,40.2105263 C24.0345269,41.0530526 24.7394501,41.7368421 25.601023,41.7368421 C26.4625959,41.7368421 27.1675192,41.0530526 27.1675192,40.2105263 C27.1675192,39.368 26.4625959,38.6842105 25.601023,38.6842105" id="Fill-2670" fill="#000000"></path>
                        <path d="M25.601023,44.7894737 C24.7394501,44.7894737 24.0345269,45.4732632 24.0345269,46.3157895 C24.0345269,47.1583158 24.7394501,47.8421053 25.601023,47.8421053 C26.4625959,47.8421053 27.1675192,47.1583158 27.1675192,46.3157895 C27.1675192,45.4732632 26.4625959,44.7894737 25.601023,44.7894737" id="Fill-2671" fill="#000000"></path>
                        <path d="M35,41.7368421 L35,26.4736842" id="Stroke-2672" stroke="#000000" stroke-width="2" stroke-linecap="round" stroke-linejoin="round"></path>
                        <polyline id="Stroke-2673" stroke="#000000" stroke-width="2" stroke-linecap="round" stroke-linejoin="round" points="53.797954 19.0805158 60.32711 25.2010421 69.3344629 15.7897789 53.797954 3.57925263"></polyline>
                        <polyline id="Stroke-2674" stroke="#000000" stroke-width="2" stroke-linecap="round" stroke-linejoin="round" points="16.202046 19.0805158 9.59456522 25.2010421 0.587212276 15.7897789 16.202046 3.57925263"></polyline>
                    </g>
                </g>
            </g>
        </g>
    </g>
</svg>