<svg xmlns="http://www.w3.org/2000/svg" xmlns:xlink="http://www.w3.org/1999/xlink" viewBox="0 0 23 22">
  <defs>
    <style>
      .a, .b {
        fill: none;
      }

      .a {
        clip-rule: evenodd;
      }

      .b {
        stroke: #000;
        stroke-linecap: round;
        stroke-linejoin: round;
      }

      .c {
        clip-path: url(#a);
      }

      .d {
        clip-path: url(#b);
      }

      .e {
        clip-path: url(#c);
      }

      .f {
        clip-path: url(#d);
      }

      .g {
        clip-path: url(#e);
      }
    </style>
    <clipPath id="a">
      <path class="a" d="M12.999,8a.5.5,0,1,0,.5.5.49891.49891,0,0,0-.5-.5"/>
    </clipPath>
    <clipPath id="b">
      <path class="a" d="M12.999,10a.5.5,0,1,0,.5.5.49891.49891,0,0,0-.5-.5"/>
    </clipPath>
    <clipPath id="c">
      <path class="a" d="M12.999,12a.5.5,0,1,0,.5.5.49891.49891,0,0,0-.5-.5"/>
    </clipPath>
    <clipPath id="d">
      <path class="a" d="M12.999,14a.5.5,0,1,0,.5.5.49891.49891,0,0,0-.5-.5"/>
    </clipPath>
    <clipPath id="e">
      <path class="a" d="M12.999,16a.5.5,0,1,0,.5.5.49891.49891,0,0,0-.5-.5"/>
    </clipPath>
  </defs>
  <title>launderedShirts</title>
  <polyline class="b" points="6.999 2 5.5 2 0.5 7.5 3 10.5 5.5 8 5.5 20.5 11.499 20.5 17.5 20.5 17.5 8 19.999 10.5 22.5 7.5 17.499 2 15.999 2"/>
  <polygon class="b" points="11.499 3.5 8.499 0.5 14.499 0.5 11.499 3.5"/>
  <rect class="b" x="11.62768" y="1.68934" width="4.24264" height="2.12132" transform="translate(2.08245 10.52747) rotate(-45)"/>
  <rect class="b" x="8.18834" y="0.62868" width="2.12132" height="4.24264" transform="translate(0.76443 7.34549) rotate(-45)"/>
  <line class="b" x1="11.499" y1="20.5" x2="11.499" y2="3.5"/>
  <g class="c">
    <rect x="7.499" y="3" width="11" height="11"/>
  </g>
  <g class="d">
    <rect x="7.499" y="5" width="11" height="11"/>
  </g>
  <g class="e">
    <rect x="7.499" y="7" width="11" height="11"/>
  </g>
  <g class="f">
    <rect x="7.499" y="9" width="11" height="11"/>
  </g>
  <g class="g">
    <rect x="7.499" y="11" width="11" height="11"/>
  </g>
</svg>
