<svg xmlns="http://www.w3.org/2000/svg" viewBox="0 0 22 17">
  <defs>
    <style>
      .a {
        fill: none;
        stroke: #000;
        stroke-linejoin: round;
      }
    </style>
  </defs>
  <title>washAndFold</title>
  <path class="a" d="M21.5,14.5a2.00073,2.00073,0,0,1-2,2H2.5a2,2,0,0,1,0-4h17A2.00073,2.00073,0,0,1,21.5,14.5Z"/>
  <path class="a" d="M20.5,10.5a2.00073,2.00073,0,0,1-2,2H3.5a2,2,0,0,1,0-4h15A2.00073,2.00073,0,0,1,20.5,10.5Z"/>
  <path class="a" d="M19.5,6.5a2.00073,2.00073,0,0,1-2,2H4.5a2,2,0,0,1,0-4h13A2.00073,2.00073,0,0,1,19.5,6.5Z"/>
  <path class="a" d="M18.5,2.5a2.00073,2.00073,0,0,1-2,2H5.5a2,2,0,0,1,0-4h11A2.00073,2.00073,0,0,1,18.5,2.5Z"/>
</svg>
